<?xml version="1.0" standalone="no"?>
<!DOCTYPE svg PUBLIC "-//W3C//DTD SVG 20010904//EN"
 "http://www.w3.org/TR/2001/REC-SVG-20010904/DTD/svg10.dtd">
<svg version="1.0" xmlns="http://www.w3.org/2000/svg"
 width="1152.000000pt" height="1152.000000pt" viewBox="0 0 1152.000000 1152.000000"
 preserveAspectRatio="xMidYMid meet">

<g transform="translate(0.000000,1152.000000) scale(0.100000,-0.100000)"
fill="#000000" stroke="none">
<path d="M1620 6085 c-288 -64 -567 -279 -849 -653 -130 -172 -301 -468 -285
-494 4 -6 3 -8 -3 -5 -6 4 -20 -17 -33 -51 -12 -31 -26 -65 -31 -74 -14 -28
-12 -29 43 -26 51 3 76 22 41 31 -16 4 -16 5 2 6 15 1 27 17 46 69 25 65 27
67 58 64 25 -3 33 1 43 23 11 24 10 29 -11 46 l-22 18 47 92 c64 125 205 334
302 449 252 301 530 481 742 483 199 1 295 -166 230 -400 -11 -40 -52 -154
-91 -254 -38 -99 -68 -186 -65 -192 3 -9 5 -9 5 0 1 7 32 81 70 165 86 192
118 281 132 368 20 132 -23 238 -125 306 -46 30 -66 37 -118 40 -35 2 -92 -3
-128 -11z"/>
<path d="M2354 5466 c-43 -19 -118 -97 -206 -213 -102 -136 -176 -257 -286
-472 -99 -191 -102 -205 -44 -199 19 3 32 23 76 128 132 313 290 568 414 670
53 44 78 40 93 -12 26 -98 -14 -288 -93 -440 -48 -92 -51 -100 -32 -96 8 2 15
6 15 11 -1 4 7 15 17 25 25 25 116 211 142 291 42 127 36 246 -15 297 -27 27
-38 29 -81 10z"/>
<path d="M3189 5455 c-101 -52 -200 -202 -273 -412 -31 -91 -33 -103 -18 -104
13 0 11 -3 -5 -9 -43 -17 -23 -28 57 -32 72 -3 81 -1 86 17 4 10 2 21 -4 23
-6 2 -4 10 6 20 9 9 34 65 56 123 36 99 40 105 63 101 28 -5 63 22 63 49 0 10
-9 24 -21 32 -20 15 -20 16 -3 48 25 50 75 121 103 147 l24 22 -44 0 c-26 -1
-63 -11 -90 -25z m-185 -517 c-3 -4 -17 -8 -32 -8 -17 0 -22 3 -15 8 16 10 53
10 47 0z"/>
<path d="M3784 5431 c-130 -62 -219 -161 -312 -346 -66 -134 -69 -142 -40
-148 20 -4 19 -4 -5 -6 -25 -1 -32 -10 -62 -73 l-34 -73 27 -6 c52 -11 202
-10 202 0 0 7 -36 11 -97 11 -53 0 -93 3 -89 8 4 4 49 7 99 7 l91 0 18 65 c76
269 162 463 246 552 14 15 23 30 21 33 -3 2 -32 -8 -65 -24z m-336 -548 c-10
-2 -28 -2 -40 0 -13 2 -5 4 17 4 22 1 32 -1 23 -4z"/>
<path d="M5784 5416 c-4 -9 1 -25 10 -35 13 -14 16 -40 16 -123 0 -57 3 -186
7 -285 l6 -180 59 2 c32 1 58 -1 58 -6 0 -5 9 -4 20 3 18 12 20 24 20 148 0
144 7 173 37 154 36 -22 91 -153 117 -274 5 -25 8 -26 77 -25 l71 0 19 73 c35
139 102 253 131 224 7 -7 14 -68 17 -154 l6 -143 75 0 75 0 3 279 c2 260 4
280 22 304 15 19 17 28 9 38 -16 19 -151 19 -188 -1 -37 -18 -121 -133 -173
-232 -46 -89 -57 -105 -69 -98 -5 3 -22 35 -39 70 -38 80 -118 200 -160 240
-29 28 -37 30 -126 33 -80 3 -95 1 -100 -12z"/>
<path d="M7021 5421 c-10 -6 -12 -17 -6 -37 12 -49 8 -81 -39 -314 -26 -124
-49 -237 -52 -251 l-5 -25 80 1 c74 1 82 4 101 27 39 50 149 49 169 0 11 -26
15 -27 91 -29 69 -2 80 0 80 15 0 9 -23 133 -52 275 -46 233 -50 262 -39 294
11 29 11 37 0 44 -18 11 -310 11 -328 0z m185 -268 c3 -16 10 -44 15 -63 20
-77 9 -100 -46 -100 -37 0 -48 22 -35 72 6 24 16 60 21 81 12 44 36 49 45 10z"/>
<path d="M7724 5416 c-3 -8 1 -25 9 -38 12 -18 16 -83 22 -298 3 -151 9 -277
11 -280 3 -2 39 -5 80 -6 l74 -1 0 38 c0 58 15 89 44 89 43 0 56 -11 86 -69
l29 -57 80 -2 c49 0 81 3 81 9 0 17 -21 52 -51 87 -16 18 -29 36 -29 41 0 4
25 15 56 25 71 22 134 80 164 148 47 111 7 254 -85 302 -37 19 -59 21 -303 24
-224 3 -263 1 -268 -12z m461 -171 c17 -16 25 -35 25 -57 0 -71 -59 -109 -175
-111 -98 -2 -110 9 -109 98 1 91 6 95 131 95 97 0 106 -2 128 -25z"/>
<path d="M8002 5198 c-7 -7 -12 -27 -12 -45 0 -26 4 -33 20 -33 15 0 20 7 20
25 0 24 2 25 63 25 68 0 79 4 70 26 -7 18 -143 20 -161 2z"/>
<path d="M8533 5423 c-18 -7 -16 -27 7 -55 12 -16 45 -127 88 -299 l68 -273
69 -3 c39 -1 75 1 82 5 8 5 -5 79 -49 270 l-61 263 19 40 c15 35 16 42 3 50
-14 9 -204 11 -226 2z"/>
<path d="M9042 5417 c-7 -8 -6 -19 3 -37 8 -14 14 -34 15 -46 0 -11 -25 -132
-55 -268 -31 -137 -54 -254 -52 -260 2 -6 35 -11 80 -12 l76 -1 67 276 c44
182 73 283 85 297 23 25 24 50 3 58 -31 12 -211 7 -222 -7z"/>
<path d="M9423 5415 c-3 -9 2 -24 11 -34 12 -14 16 -39 16 -117 0 -54 3 -183
7 -285 l6 -185 71 2 c39 1 74 2 79 3 4 0 7 19 7 42 0 70 11 79 91 79 47 0 78
-5 94 -16 13 -9 29 -13 35 -9 6 4 10 47 10 106 0 109 -9 125 -52 95 -31 -22
-141 -22 -162 0 -22 21 -22 122 0 152 14 21 22 22 139 22 99 0 130 -3 155 -17
30 -17 31 -17 46 2 20 27 57 151 49 165 -4 6 -107 10 -301 10 -256 0 -295 -2
-301 -15z"/>
<path d="M10193 5415 c-3 -9 2 -24 11 -34 13 -14 16 -41 16 -137 0 -229 12
-464 24 -456 6 3 40 7 76 7 l65 0 5 280 c4 244 7 283 22 304 30 42 10 51 -109
51 -84 0 -105 -3 -110 -15z"/>
<path d="M8805 5327 c-5 -26 8 -94 46 -250 29 -119 56 -214 61 -211 16 10 7
74 -28 220 -21 82 -36 170 -36 195 2 34 -3 51 -17 63 -19 17 -20 17 -26 -17z"/>
<path d="M10054 5273 c-23 -70 -33 -89 -50 -91 -11 -2 -27 4 -34 13 -10 12
-36 15 -130 15 -65 0 -125 -3 -134 -6 -11 -4 -16 -19 -16 -45 0 -45 20 -53 38
-14 11 24 14 25 119 25 75 -1 116 -5 133 -15 42 -24 76 -19 88 13 36 89 48
192 23 192 -4 0 -21 -39 -37 -87z"/>
<path d="M9318 5317 c-20 -26 -36 -81 -81 -277 -31 -134 -54 -246 -52 -248 19
-19 37 30 84 228 40 166 60 229 77 250 27 31 30 52 11 68 -10 8 -19 3 -39 -21z"/>
<path d="M6178 5263 c26 -45 50 -82 55 -83 4 0 7 11 7 25 0 16 -19 44 -55 82
l-55 58 48 -82z"/>
<path d="M6696 5315 c-14 -20 -16 -63 -16 -269 0 -163 4 -247 11 -251 6 -4 12
-5 15 -3 2 3 7 108 11 234 4 167 10 235 20 250 7 12 11 28 7 37 -10 26 -32 27
-48 2z"/>
<path d="M7412 5315 c-17 -38 -17 -40 39 -291 37 -163 56 -231 65 -231 8 0 14
5 14 12 0 6 -20 110 -45 230 -34 164 -43 225 -36 245 9 26 -1 60 -18 60 -4 0
-13 -11 -19 -25z"/>
<path d="M10478 5315 c-16 -21 -18 -51 -18 -274 0 -204 3 -251 13 -251 11 0
15 35 20 152 4 83 7 187 7 230 0 56 5 86 17 104 15 24 15 26 -3 44 -19 18 -19
18 -36 -5z"/>
<path d="M2534 5265 c-4 -9 -2 -21 4 -27 15 -15 44 -1 40 19 -4 23 -36 29 -44
8z"/>
<path d="M8467 5229 c10 -101 -39 -218 -113 -276 -20 -15 -46 -36 -57 -45
l-22 -17 25 -47 c27 -52 59 -74 46 -33 -20 66 -20 66 42 123 74 69 105 135
105 221 0 33 -7 76 -15 95 l-16 35 5 -56z"/>
<path d="M4936 5109 c-23 -18 -27 -28 -24 -62 4 -52 40 -83 80 -68 37 14 63
83 46 119 -17 36 -64 41 -102 11z"/>
<path d="M3114 5106 c-3 -8 -4 -23 -2 -33 5 -25 61 -25 66 0 7 37 -51 67 -64
33z"/>
<path d="M9920 4941 c0 -118 -19 -143 -73 -101 -17 13 -40 20 -72 20 -59 0
-85 -14 -85 -45 0 -27 24 -34 34 -10 7 20 108 20 139 1 12 -8 36 -13 52 -12
l30 2 3 100 c2 81 0 104 -13 114 -13 11 -15 3 -15 -69z"/>
<path d="M1816 4928 c-21 -29 -20 -38 2 -39 11 0 12 -2 4 -6 -10 -4 -10 -8 -1
-19 24 -29 79 -5 79 36 0 24 -26 50 -50 50 -10 0 -26 -10 -34 -22z"/>
<path d="M6382 4915 c-8 -16 -16 -51 -19 -77 -5 -40 -3 -48 11 -48 23 0 28 17
24 91 -3 62 -4 63 -16 34z"/>
<path d="M6050 4863 c0 -61 3 -73 16 -73 14 0 16 8 11 55 -9 91 -26 102 -27
18z"/>
<path d="M640 4865 c-16 -19 -6 -32 25 -32 29 0 36 31 9 41 -21 8 -20 8 -34
-9z"/>
<path d="M2843 4845 c-18 -39 -9 -61 13 -31 18 26 18 8 -1 -38 l-15 -36 55 -2
c30 -1 63 -2 72 -2 22 -1 41 53 22 65 -11 7 -10 9 4 9 9 0 17 6 17 13 0 6 3
22 6 35 6 21 4 22 -59 22 -43 0 -67 -4 -70 -12 -4 -10 -6 -10 -6 0 -2 23 -21
12 -38 -23z m70 -42 c-7 -2 -19 -2 -25 0 -7 3 -2 5 12 5 14 0 19 -2 13 -5z"/>
<path d="M7997 4834 c-10 -11 -8 -44 2 -44 6 0 13 4 16 10 8 12 -9 43 -18 34z"/>
<path d="M2177 4713 c-149 -220 -439 -544 -464 -519 -4 3 19 82 51 174 31 92
60 175 63 185 5 16 1 18 -33 15 -38 -3 -38 -3 -81 -103 -24 -55 -67 -158 -95
-230 -28 -71 -55 -136 -61 -142 -14 -19 -198 -115 -310 -163 -154 -65 -272
-92 -392 -88 -85 3 -109 7 -158 31 -117 58 -201 162 -243 302 -19 63 -26 282
-11 338 7 26 6 27 -32 27 -54 0 -71 -20 -71 -81 0 -42 3 -49 19 -49 11 0 23
-5 27 -11 5 -9 -1 -10 -20 -5 -25 6 -26 5 -26 -41 1 -201 128 -420 292 -504
187 -96 538 -46 825 117 37 22 70 40 73 42 3 1 4 -42 2 -96 -3 -70 1 -117 12
-162 109 -424 532 -242 956 411 57 88 106 153 123 163 22 12 27 21 22 37 -5
15 15 65 74 179 45 87 81 160 81 164 0 3 -4 6 -9 6 -8 0 -153 -253 -173 -301
-4 -11 -15 -15 -32 -12 -14 3 -23 9 -21 14 3 4 12 6 21 2 12 -5 13 -1 3 23
-17 39 -55 74 -83 74 -17 0 -22 6 -22 23 1 17 -5 23 -29 26 -26 3 -28 4 -10
11 18 8 17 9 -5 9 -15 1 -31 -4 -38 -11 -17 -17 -15 -53 3 -68 13 -11 13 -15
0 -33 -19 -28 -19 -35 3 -40 16 -4 16 -5 0 -6 -28 -2 -22 -46 10 -82 23 -26
36 -32 70 -32 23 0 49 7 59 14 21 18 -18 -54 -53 -97 -22 -27 -23 -28 -24 -7
0 26 -44 63 -75 63 -12 0 -34 -9 -49 -21 -57 -45 -17 -147 53 -137 l30 4 -36
-50 c-153 -216 -356 -429 -459 -483 -85 -45 -130 -51 -173 -21 -73 49 -107
165 -98 338 9 159 22 211 61 238 94 64 457 486 441 512 -3 4 1 10 9 13 13 5
96 119 96 131 0 4 -6 6 -13 6 -7 0 -43 -44 -80 -97z m330 -289 c-3 -3 -12 -4
-19 -1 -8 3 -5 6 6 6 11 1 17 -2 13 -5z m-50 -20 c-3 -3 -12 -4 -19 -1 -8 3
-5 6 6 6 11 1 17 -2 13 -5z"/>
<path d="M4610 4785 c0 -8 -17 -19 -42 -26 -40 -11 -41 -13 -18 -20 22 -6 20
-7 -12 -8 -43 -1 -54 -27 -15 -34 12 -2 6 -3 -14 -1 -36 4 -37 3 -67 -59 -16
-34 -42 -101 -58 -150 -15 -48 -33 -86 -39 -84 -25 9 -28 56 -10 144 24 117
29 163 18 163 -6 0 -16 -25 -23 -55 -7 -30 -17 -55 -22 -55 -4 0 -8 27 -8 59
0 48 -3 60 -17 64 -13 3 -11 5 7 7 l25 2 -25 8 c-24 8 -23 8 8 9 20 1 35 -5
38 -14 4 -8 10 -12 16 -9 18 11 -24 44 -58 44 -40 0 -66 -9 -58 -21 3 -5 -2
-9 -11 -9 -8 0 -20 -12 -25 -26 -13 -33 -13 -34 8 -35 13 0 14 -2 2 -6 -8 -3
-19 -12 -23 -19 -9 -16 -59 -17 -127 -4 -44 9 -44 9 13 5 31 -2 57 -1 57 1 0
3 -23 15 -51 28 -27 13 -49 27 -47 31 2 4 -26 23 -60 41 -72 38 -137 45 -198
19 -42 -17 -72 -44 -52 -46 7 -1 0 -4 -17 -8 -24 -5 -36 -18 -63 -71 -58 -116
-65 -232 -17 -325 12 -25 19 -48 14 -51 -14 -8 -10 -24 7 -31 9 -3 19 -1 23 6
6 8 18 7 47 -5 53 -22 156 -15 220 16 60 30 117 86 147 147 36 71 41 100 20
112 -17 10 -17 10 0 11 14 0 17 9 17 45 l0 44 33 -14 c29 -12 33 -19 43 -77 6
-34 21 -109 34 -165 l23 -103 77 0 c67 0 79 3 97 23 29 31 47 70 72 152 12 39
33 98 47 133 24 56 29 62 55 62 29 0 39 14 17 23 -8 3 -6 6 5 6 19 1 21 5 8
30 -16 30 49 18 74 -13 12 -15 24 -24 28 -20 10 10 -12 44 -28 44 -8 0 -14 5
-12 12 1 7 -13 15 -33 19 -27 5 -30 7 -10 8 24 2 24 2 5 14 -12 7 -19 20 -17
30 2 10 -3 17 -12 17 -9 0 -16 -7 -16 -15z m-822 -61 c-9 -9 -22 -14 -30 -11
-8 3 -4 8 12 15 35 15 37 14 18 -4z m190 4 c-2 -6 8 -15 22 -19 24 -7 24 -7 3
-8 -20 -1 -21 -4 -13 -27 13 -33 13 -61 -1 -123 -9 -45 -13 -50 -29 -41 -26
14 -26 14 -25 -20 0 -17 6 -34 13 -39 11 -7 9 -18 -12 -58 -33 -66 -69 -108
-106 -123 -25 -10 -34 -10 -55 4 -24 16 -65 71 -65 88 0 4 10 8 23 10 32 4 31
59 -1 73 -20 9 -23 15 -19 47 8 60 55 150 105 201 45 45 48 47 104 47 39 0 57
-4 56 -12z m75 -205 c-7 -2 -21 -2 -30 0 -10 3 -4 5 12 5 17 0 24 -2 18 -5z
m40 -40 c-7 -2 -19 -2 -25 0 -7 3 -2 5 12 5 14 0 19 -2 13 -5z"/>
<path d="M2810 4771 c-12 -24 -13 -41 -2 -41 8 0 32 43 32 55 0 13 -21 3 -30
-14z"/>
<path d="M4825 4758 c-26 -20 -26 -22 -9 -29 16 -6 14 -8 -8 -8 -39 -1 -35
-19 5 -24 l32 -4 -36 -1 c-34 -2 -56 -21 -51 -44 1 -5 -6 -8 -15 -8 -14 0 -18
-9 -18 -37 0 -21 -4 -52 -8 -70 -7 -26 -5 -32 10 -36 14 -4 13 -5 -4 -6 -13 0
-23 -7 -23 -16 0 -8 -10 -40 -21 -71 -25 -66 -78 -129 -116 -139 l-27 -6 30
-20 c97 -64 185 -11 243 146 36 99 37 95 -3 95 -19 0 -38 5 -41 11 -5 7 7 10
35 7 l42 -3 28 78 c18 52 24 80 16 82 -36 11 -38 13 -9 14 36 1 53 17 26 24
-18 5 -2 7 60 8 55 2 121 -89 99 -134 -25 -52 -25 -65 5 -70 l28 -4 -27 -2
c-33 -1 -42 -25 -33 -91 19 -139 180 -220 314 -159 41 18 251 212 251 231 0
26 -42 -4 -124 -87 -102 -104 -139 -125 -220 -125 -73 0 -97 20 -103 87 l-5
51 43 27 c64 40 165 114 216 159 32 29 40 42 31 48 -10 6 -9 8 4 8 19 0 38 29
38 58 0 11 -14 32 -31 46 -26 22 -40 26 -98 26 -73 0 -141 -19 -181 -50 -21
-17 -23 -21 -10 -30 12 -8 9 -10 -12 -10 -15 0 -33 -8 -41 -20 -13 -19 -16
-17 -74 39 -83 81 -155 101 -208 59z m585 -51 c46 -23 30 -70 -25 -71 -15 -1
-20 -7 -18 -28 1 -22 -8 -33 -63 -69 -46 -30 -61 -45 -52 -50 9 -6 4 -9 -15
-9 -16 0 -37 -5 -48 -10 -13 -7 -19 -7 -19 0 0 5 -13 10 -29 10 -17 0 -33 5
-36 10 -4 6 10 10 34 10 39 0 40 1 78 73 l40 72 -41 6 c-41 6 -41 6 11 7 31 1
55 7 60 15 13 21 56 47 78 47 11 0 31 -6 45 -13z m-145 -25 c-3 -3 -11 0 -18
7 -9 10 -8 11 6 5 10 -3 15 -9 12 -12z m-445 -32 c0 -5 -12 -10 -27 -9 -25 0
-26 1 -8 9 27 12 35 12 35 0z m345 0 c-3 -5 -14 -10 -23 -10 -15 0 -15 2 -2
10 20 13 33 13 25 0z"/>
<path d="M400 4756 c0 -9 -1 -19 -2 -22 -2 -4 20 -7 47 -8 44 0 50 2 50 19 0
17 -8 21 -47 23 -38 2 -48 0 -48 -12z"/>
<path d="M3315 4750 c-9 -15 4 -30 25 -30 24 0 36 20 19 31 -19 12 -36 11 -44
-1z"/>
<path d="M3392 4725 c3 -14 1 -25 -6 -25 -6 -1 -31 -62 -55 -137 -71 -217
-176 -409 -259 -473 l-27 -20 30 11 c158 56 317 226 393 419 49 124 58 160 41
171 -12 7 -11 9 3 9 19 0 23 5 32 43 l6 27 -81 0 -81 0 4 -25z m103 -15 c3 -5
-3 -10 -14 -10 -11 0 -23 5 -26 10 -3 6 3 10 14 10 11 0 23 -4 26 -10z m-78
-36 c-3 -3 -12 -4 -19 -1 -8 3 -5 6 6 6 11 1 17 -2 13 -5z m60 0 c-3 -3 -12
-4 -19 -1 -8 3 -5 6 6 6 11 1 17 -2 13 -5z"/>
<path d="M2848 4713 c-12 -3 -24 -35 -43 -116 -62 -260 -37 -397 75 -397 56 0
155 81 241 198 29 40 30 42 9 42 -14 0 -48 -28 -97 -81 -67 -70 -78 -78 -91
-66 -8 8 -16 35 -19 59 -5 41 -8 46 -42 56 -35 11 -35 11 -4 7 18 -2 35 0 38
5 3 6 -1 10 -9 10 -9 0 -16 5 -16 10 0 6 6 10 13 10 7 0 24 48 43 129 l30 129
-35 6 c-39 6 -67 6 -93 -1z"/>
<path d="M3260 4658 c-23 -42 -69 -111 -118 -175 l-24 -33 23 0 c19 0 41 24
104 112 106 147 101 138 67 138 -23 0 -33 -8 -52 -42z"/>
<path d="M3575 4690 c-3 -5 -1 -10 4 -10 6 0 11 5 11 10 0 6 -2 10 -4 10 -3 0
-8 -4 -11 -10z"/>
<path d="M361 4606 c-6 -25 -11 -47 -11 -50 0 -3 22 -6 50 -6 46 0 50 2 56 28
3 15 8 35 11 46 5 16 1 17 -38 11 -32 -4 -40 -3 -29 4 12 9 11 11 -6 11 -17 0
-24 -9 -33 -44z"/>
<path d="M3542 4603 c5 -26 38 -29 38 -4 0 15 -6 21 -21 21 -14 0 -19 -5 -17
-17z"/>
<path d="M4890 4580 c0 -5 9 -10 20 -10 11 0 20 5 20 10 0 6 -9 10 -20 10 -11
0 -20 -4 -20 -10z"/>
<path d="M2199 4509 c-17 -33 3 -69 39 -69 33 0 52 16 52 45 0 29 -19 45 -52
45 -18 0 -31 -7 -39 -21z"/>
<path d="M5192 4318 c2 -12 10 -23 18 -23 22 0 19 39 -3 43 -15 3 -18 -1 -15
-20z"/>
<path d="M4250 4230 c0 -12 67 -12 95 0 14 6 4 9 -37 9 -33 1 -58 -3 -58 -9z"/>
<path d="M4220 4185 c0 -8 5 -15 10 -15 6 0 10 7 10 15 0 8 -4 15 -10 15 -5 0
-10 -7 -10 -15z"/>
<path d="M2639 4134 c-9 -11 -9 -18 -1 -26 14 -14 42 -3 42 16 0 20 -27 27
-41 10z"/>
<path d="M2867 4014 c-9 -10 2 -24 19 -24 8 0 14 7 14 15 0 15 -21 21 -33 9z"/>
<path d="M1434 3715 c-4 -9 -2 -21 4 -27 15 -15 44 -1 40 19 -4 23 -36 29 -44
8z"/>
</g>
</svg>
